<svg width="234" height="32" viewBox="0 0 234 32" fill="none" xmlns="http://www.w3.org/2000/svg">
<path d="M16.7074 7.00787L6.85789 32H0.874512L11.7827 4.38439C12.9333 1.48475 15.0505 0.380127 18.3184 0.380127C21.5402 0.380127 23.6574 1.48475 24.762 4.38439L35.2559 32H29.2265L19.7912 7.00787C19.515 6.27145 19.0087 5.94927 18.2723 5.94927C17.5359 5.94927 17.0296 6.27145 16.7074 7.00787Z" fill="white"/>
<path d="M39.7747 0.93244H56.6202C63.6162 0.93244 66.6079 5.25888 66.6079 10.2297C66.6079 14.0959 64.7668 18.2382 60.0262 19.573L67.2522 32H61.2228L54.1348 19.9872H46.0343C45.528 19.9872 45.2518 20.2173 45.2518 20.7696V32H39.8208V19.711C39.8208 16.2131 41.2936 14.7863 44.6995 14.7863H56.8043C59.8881 14.7863 61.1308 12.6691 61.1308 10.4598C61.1308 8.25057 59.796 6.3635 56.8043 6.3635H39.7747V0.93244Z" fill="white"/>
<path d="M69.6995 0.93244H93.3108V6.3635H84.2437V32H78.7666V6.3635H69.6995V0.93244Z" fill="white"/>
<path d="M98.433 0.93244H103.864V32H98.433V0.93244Z" fill="white"/>
<path d="M122.562 0.93244H135.449V6.3635H122.93C118.006 6.3635 116.533 8.71083 116.533 11.6105V14.5561H135.265V19.711H116.533V32H111.102V11.6565C111.102 5.44298 114.323 0.93244 122.562 0.93244Z" fill="white"/>
<path d="M141.575 0.93244H147.006V21.2299C147.006 24.2216 148.479 26.5689 153.357 26.5689H165.416V32H153.035C144.797 32 141.575 27.4894 141.575 21.2759V0.93244Z" fill="white"/>
<path d="M179.78 0.93244H195.336V6.3635H179.78C176.512 6.3635 175.085 7.88236 175.085 10.2757C175.085 12.8071 176.696 13.9578 179.826 13.9578H195.106V18.8826H179.688C176.558 18.8826 174.947 20.1253 174.947 22.6567C174.947 25.0961 176.466 26.5689 179.642 26.5689H195.382V32H179.642C172.277 32 169.286 28.3639 169.286 23.5312C169.286 19.9872 170.897 17.5938 173.75 16.3972C170.851 15.2005 169.378 12.8071 169.378 9.40122C169.378 4.43041 172.461 0.93244 179.78 0.93244Z" fill="white"/>
<path d="M200.83 0.93244H207.458L216.985 12.3929L226.973 0.93244H233.693L220.391 16.2131L233.785 32H227.157L216.847 19.665L206.261 32H199.541L213.441 15.7988L200.83 0.93244Z" fill="white"/>
</svg>
